<?xml version="1.0" encoding="UTF-8" standalone="no"?>
<!DOCTYPE svg PUBLIC "-//W3C//DTD SVG 1.1//EN"
 "http://www.w3.org/Graphics/SVG/1.1/DTD/svg11.dtd">
<!-- Generated by graphviz version 2.26.3 (20100126.1600)
 -->
<!-- Title: Curl Pages: 1 -->
<svg width="690pt" height="413pt"
 viewBox="0.00 0.00 715.00 428.00" xmlns="http://www.w3.org/2000/svg" xmlns:xlink="http://www.w3.org/1999/xlink">
<g id="graph1" class="graph" transform="scale(1 1) rotate(0) translate(4 424)">
<title>Curl</title>
<polygon fill="white" stroke="white" points="-4,5 -4,-424 712,-424 712,5 -4,5"/>
<!-- Obstacles -->
<g id="node1" class="node"><title>Obstacles</title>
<a xlink:href="http://prideout.net/blog/p63/Obstacles.png" xlink:title="Obstacles">
<ellipse fill="#ff7700" stroke="black" cx="262" cy="-402" rx="47.8011" ry="18"/>
<text text-anchor="middle" x="262" y="-397.4" font-family="Times New Roman,serif" font-size="14.00">Obstacles</text>
</a>
</g>
<!-- DistanceField -->
<g id="node6" class="node"><title>DistanceField</title>
<a xlink:href="http://prideout.net/blog/p63/DistanceField.png" xlink:title="DistanceField">
<ellipse fill="lightgray" stroke="black" cx="262" cy="-328" rx="61.2137" ry="18"/>
<text text-anchor="middle" x="262" y="-323.4" font-family="Times New Roman,serif" font-size="14.00">DistanceField</text>
</a>
</g>
<!-- Obstacles&#45;&gt;DistanceField -->
<g id="edge2" class="edge"><title>Obstacles&#45;&gt;DistanceField</title>
<path fill="none" stroke="black" d="M262,-383.708C262,-375.464 262,-365.538 262,-356.362"/>
<polygon fill="black" stroke="black" points="265.5,-356.082 262,-346.082 258.5,-356.082 265.5,-356.082"/>
</g>
<!-- RawBuoyancy -->
<g id="node2" class="node"><title>RawBuoyancy</title>
<a xlink:href="http://prideout.net/blog/p63/RawBuoyancy.png" xlink:title="RawBuoyancy">
<ellipse fill="#ff7700" stroke="black" cx="65" cy="-254" rx="65.2386" ry="18"/>
<text text-anchor="middle" x="65" y="-249.4" font-family="Times New Roman,serif" font-size="14.00">RawBuoyancy</text>
</a>
</g>
<!-- FinalBuoyancy -->
<g id="node10" class="node"><title>FinalBuoyancy</title>
<a xlink:href="http://prideout.net/blog/p63/FinalBuoyancy.png" xlink:title="FinalBuoyancy">
<ellipse fill="lightgray" stroke="black" cx="171" cy="-180" rx="67.082" ry="18"/>
<text text-anchor="middle" x="171" y="-175.4" font-family="Times New Roman,serif" font-size="14.00">FinalBuoyancy</text>
</a>
</g>
<!-- RawBuoyancy&#45;&gt;FinalBuoyancy -->
<g id="edge10" class="edge"><title>RawBuoyancy&#45;&gt;FinalBuoyancy</title>
<path fill="none" stroke="black" d="M89.053,-237.208C103.587,-227.062 122.31,-213.991 138.19,-202.905"/>
<polygon fill="black" stroke="black" points="140.479,-205.576 146.675,-196.981 136.472,-199.836 140.479,-205.576"/>
</g>
<!-- RawTurbulence -->
<g id="node3" class="node"><title>RawTurbulence</title>
<a xlink:href="http://prideout.net/blog/p63/RawTurbulence.png" xlink:title="RawTurbulence">
<ellipse fill="#ff7700" stroke="black" cx="449" cy="-328" rx="69.9366" ry="18"/>
<text text-anchor="middle" x="449" y="-323.4" font-family="Times New Roman,serif" font-size="14.00">RawTurbulence</text>
</a>
</g>
<!-- ModulatedTurbulence -->
<g id="node8" class="node"><title>ModulatedTurbulence</title>
<a xlink:href="http://prideout.net/blog/p63/ModulatedTurbulence.png" xlink:title="ModulatedTurbulence">
<ellipse fill="lightgray" stroke="black" cx="488" cy="-254" rx="93.9149" ry="18"/>
<text text-anchor="middle" x="488" y="-249.4" font-family="Times New Roman,serif" font-size="14.00">ModulatedTurbulence</text>
</a>
</g>
<!-- RawTurbulence&#45;&gt;ModulatedTurbulence -->
<g id="edge12" class="edge"><title>RawTurbulence&#45;&gt;ModulatedTurbulence</title>
<path fill="none" stroke="black" d="M458.441,-310.087C463.053,-301.335 468.7,-290.621 473.818,-280.91"/>
<polygon fill="black" stroke="black" points="476.945,-282.483 478.511,-272.005 470.752,-279.22 476.945,-282.483"/>
</g>
<!-- TurbulenceIntensity -->
<g id="node4" class="node"><title>TurbulenceIntensity</title>
<a xlink:href="http://prideout.net/blog/p63/TurbulenceIntensity.png" xlink:title="TurbulenceIntensity">
<ellipse fill="#ff7700" stroke="black" cx="622" cy="-328" rx="85.1942" ry="18"/>
<text text-anchor="middle" x="622" y="-323.4" font-family="Times New Roman,serif" font-size="14.00">TurbulenceIntensity</text>
</a>
</g>
<!-- TurbulenceIntensity&#45;&gt;ModulatedTurbulence -->
<g id="edge14" class="edge"><title>TurbulenceIntensity&#45;&gt;ModulatedTurbulence</title>
<path fill="none" stroke="black" d="M591.258,-311.023C572.496,-300.662 548.306,-287.303 528.056,-276.121"/>
<polygon fill="black" stroke="black" points="529.509,-272.925 519.063,-271.154 526.125,-279.052 529.509,-272.925"/>
</g>
<!-- Velocity -->
<g id="node5" class="node"><title>Velocity</title>
<a xlink:href="http://prideout.net/blog/p63/Velocity.png" xlink:title="Velocity">
<ellipse fill="#77ff00" stroke="black" cx="281" cy="-18" rx="41.7645" ry="18"/>
<text text-anchor="middle" x="281" y="-13.4" font-family="Times New Roman,serif" font-size="14.00">Velocity</text>
</a>
</g>
<!-- DistanceGradient -->
<g id="node7" class="node"><title>DistanceGradient</title>
<a xlink:href="http://prideout.net/blog/p63/DistanceGradient.png" xlink:title="DistanceGradient">
<ellipse fill="lightgray" stroke="black" cx="262" cy="-254" rx="75.8027" ry="18"/>
<text text-anchor="middle" x="262" y="-249.4" font-family="Times New Roman,serif" font-size="14.00">DistanceGradient</text>
</a>
</g>
<!-- DistanceField&#45;&gt;DistanceGradient -->
<g id="edge4" class="edge"><title>DistanceField&#45;&gt;DistanceGradient</title>
<path fill="none" stroke="black" d="M262,-309.708C262,-301.464 262,-291.538 262,-282.362"/>
<polygon fill="black" stroke="black" points="265.5,-282.082 262,-272.082 258.5,-282.082 265.5,-282.082"/>
</g>
<!-- FinalTurbulence -->
<g id="node9" class="node"><title>FinalTurbulence</title>
<a xlink:href="http://prideout.net/blog/p63/FinalTurbulence.png" xlink:title="FinalTurbulence">
<ellipse fill="lightgray" stroke="black" cx="353" cy="-180" rx="71.7778" ry="18"/>
<text text-anchor="middle" x="353" y="-175.4" font-family="Times New Roman,serif" font-size="14.00">FinalTurbulence</text>
</a>
</g>
<!-- DistanceField&#45;&gt;FinalTurbulence -->
<g id="edge18" class="edge"><title>DistanceField&#45;&gt;FinalTurbulence</title>
<path fill="none" stroke="black" d="M298.578,-313.352C316.35,-304.23 336.163,-290.638 347,-272 358.133,-252.853 358.984,-227.525 357.415,-208.293"/>
<polygon fill="black" stroke="black" points="360.891,-207.883 356.345,-198.313 353.931,-208.629 360.891,-207.883"/>
</g>
<!-- DistanceField&#45;&gt;FinalBuoyancy -->
<g id="edge6" class="edge"><title>DistanceField&#45;&gt;FinalBuoyancy</title>
<path fill="none" stroke="black" d="M225.422,-313.352C207.65,-304.23 187.837,-290.638 177,-272 165.867,-252.853 165.016,-227.525 166.585,-208.293"/>
<polygon fill="black" stroke="black" points="170.069,-208.629 167.655,-198.313 163.109,-207.883 170.069,-208.629"/>
</g>
<!-- DistanceGradient&#45;&gt;FinalTurbulence -->
<g id="edge20" class="edge"><title>DistanceGradient&#45;&gt;FinalTurbulence</title>
<path fill="none" stroke="black" d="M283.566,-236.463C295.579,-226.694 310.703,-214.395 323.767,-203.772"/>
<polygon fill="black" stroke="black" points="326.039,-206.436 331.589,-197.411 321.622,-201.005 326.039,-206.436"/>
</g>
<!-- DistanceGradient&#45;&gt;FinalBuoyancy -->
<g id="edge8" class="edge"><title>DistanceGradient&#45;&gt;FinalBuoyancy</title>
<path fill="none" stroke="black" d="M240.434,-236.463C228.334,-226.624 213.077,-214.217 199.949,-203.541"/>
<polygon fill="black" stroke="black" points="202.064,-200.749 192.097,-197.156 197.647,-206.18 202.064,-200.749"/>
</g>
<!-- ModulatedTurbulence&#45;&gt;FinalTurbulence -->
<g id="edge16" class="edge"><title>ModulatedTurbulence&#45;&gt;FinalTurbulence</title>
<path fill="none" stroke="black" d="M456.689,-236.837C437.419,-226.274 412.563,-212.65 392.018,-201.388"/>
<polygon fill="black" stroke="black" points="393.664,-198.299 383.213,-196.561 390.299,-204.437 393.664,-198.299"/>
</g>
<!-- FinalPotential -->
<g id="node11" class="node"><title>FinalPotential</title>
<a xlink:href="http://prideout.net/blog/p63/FinalPotential.png" xlink:title="FinalPotential">
<ellipse fill="lightgray" stroke="black" cx="281" cy="-106" rx="61.2137" ry="18"/>
<text text-anchor="middle" x="281" y="-101.4" font-family="Times New Roman,serif" font-size="14.00">FinalPotential</text>
</a>
</g>
<!-- FinalTurbulence&#45;&gt;FinalPotential -->
<g id="edge22" class="edge"><title>FinalTurbulence&#45;&gt;FinalPotential</title>
<path fill="none" stroke="black" d="M335.937,-162.463C326.701,-152.971 315.141,-141.089 305.011,-130.678"/>
<polygon fill="black" stroke="black" points="307.423,-128.138 297.941,-123.411 302.406,-133.019 307.423,-128.138"/>
</g>
<!-- FinalBuoyancy&#45;&gt;FinalPotential -->
<g id="edge24" class="edge"><title>FinalBuoyancy&#45;&gt;FinalPotential</title>
<path fill="none" stroke="black" d="M195.961,-163.208C211.291,-152.895 231.112,-139.561 247.761,-128.361"/>
<polygon fill="black" stroke="black" points="249.794,-131.211 256.138,-122.725 245.887,-125.403 249.794,-131.211"/>
</g>
<!-- FinalPotential&#45;&gt;Velocity -->
<g id="edge26" class="edge"><title>FinalPotential&#45;&gt;Velocity</title>
<path fill="none" stroke="black" d="M281,-87.7663C281,-75.8492 281,-60.0384 281,-46.4817"/>
<polygon fill="black" stroke="black" points="284.5,-46.2103 281,-36.2103 277.5,-46.2103 284.5,-46.2103"/>
<text text-anchor="middle" x="293.5" y="-57.4" font-family="Times New Roman,serif" font-size="14.00"> curl</text>
</g>
</g>
</svg>
